<?xml version="1.0" encoding="UTF-8"?>
<svg width="200" height="200" viewBox="0 0 200 200" xmlns="http://www.w3.org/2000/svg">
  <!-- Sauna building with blue -->
  <rect x="50" y="80" width="100" height="100" fill="#1E90FF" rx="15"/>
  <!-- Roof with gradient -->
  <defs>
    <linearGradient id="roofGradient" x1="0%" y1="0%" x2="0%" y2="100%">
      <stop offset="0%" style="stop-color:#4169E1;stop-opacity:1" />
      <stop offset="100%" style="stop-color:#1E90FF;stop-opacity:1" />
    </linearGradient>
  </defs>
  <path d="M40 80 Q100 30 160 80" fill="url(#roofGradient)"/>
  <!-- Door with cute handle -->
  <rect x="85" y="140" width="30" height="40" fill="#87CEEB" rx="5"/>
  <circle cx="110" cy="160" r="3" fill="#4169E1"/>
  <!-- Windows with curtains -->
  <rect x="65" y="100" width="30" height="30" fill="#B0E0E6" rx="5"/>
  <rect x="105" y="100" width="30" height="30" fill="#B0E0E6" rx="5"/>
  <!-- Curtains -->
  <path d="M65 100 L65 130 L50 130 L50 100 Z" fill="#87CEEB" opacity="0.3"/>
  <path d="M95 100 L95 130 L80 130 L80 100 Z" fill="#87CEEB" opacity="0.3"/>
  <path d="M105 100 L105 130 L90 130 L90 100 Z" fill="#87CEEB" opacity="0.3"/>
  <path d="M135 100 L135 130 L120 130 L120 100 Z" fill="#87CEEB" opacity="0.3"/>
  <!-- Cute steam particles -->
  <circle cx="100" cy="40" r="6" fill="#87CEEB" opacity="0.6"/>
  <circle cx="90" cy="35" r="5" fill="#87CEEB" opacity="0.5"/>
  <circle cx="110" cy="35" r="5" fill="#87CEEB" opacity="0.5"/>
  <circle cx="95" cy="30" r="4" fill="#87CEEB" opacity="0.4"/>
  <circle cx="105" cy="30" r="4" fill="#87CEEB" opacity="0.4"/>
  <!-- Ground with grass tufts -->
  <rect x="0" y="180" width="200" height="20" fill="#4169E1"/>
  <!-- Grass tufts -->
  <path d="M20 180 Q20 170 25 180 Q30 170 35 180" fill="#1E90FF" stroke="#1E90FF" stroke-width="2"/>
  <path d="M60 180 Q60 170 65 180 Q70 170 75 180" fill="#1E90FF" stroke="#1E90FF" stroke-width="2"/>
  <path d="M100 180 Q100 170 105 180 Q110 170 115 180" fill="#1E90FF" stroke="#1E90FF" stroke-width="2"/>
  <path d="M140 180 Q140 170 145 180 Q150 170 155 180" fill="#1E90FF" stroke="#1E90FF" stroke-width="2"/>
  <path d="M180 180 Q180 170 185 180 Q190 170 195 180" fill="#1E90FF" stroke="#1E90FF" stroke-width="2"/>
</svg>